<?xml version="1.0" standalone="no"?>
<!DOCTYPE svg PUBLIC "-//W3C//DTD SVG 20010904//EN"
 "http://www.w3.org/TR/2001/REC-SVG-20010904/DTD/svg10.dtd">
<svg version="1.0" xmlns="http://www.w3.org/2000/svg"
 width="134.000000pt" height="134.000000pt" viewBox="0 0 134.000000 134.000000"
 preserveAspectRatio="xMidYMid meet">
<metadata>
Created by potrace 1.14, written by Peter Selinger 2001-2017
</metadata>
<g transform="translate(0.000000,134.000000) scale(0.100000,-0.100000)"
fill="#000000" stroke="none">
<path d="M530 1285 c-160 -35 -326 -157 -405 -299 -63 -113 -78 -173 -78 -316
0 -112 2 -133 27 -200 16 -41 48 -104 71 -140 42 -63 121 -148 128 -139 2 2
20 51 40 109 19 58 79 231 132 385 54 154 109 316 124 360 l28 80 69 3 69 3
82 -238 c44 -131 116 -339 158 -463 43 -124 80 -228 84 -233 12 -12 103 86
144 154 64 108 82 183 81 334 0 122 -2 135 -33 212 -79 200 -244 341 -452 387
-77 18 -192 18 -269 1z"/>
<path d="M607 848 c-108 -309 -134 -388 -128 -389 10 -2 381 -4 381 -2 0 6
-183 530 -189 541 -5 8 -30 -52 -64 -150z"/>
<path d="M435 348 c-2 -7 -20 -58 -40 -113 -19 -55 -35 -103 -35 -106 0 -9 95
-47 160 -64 58 -15 200 -21 255 -10 60 11 174 53 194 71 2 2 -13 56 -35 119
l-38 115 -229 0 c-173 0 -229 -3 -232 -12z"/>
</g>
</svg>
